<svg enable-background="new 0 0 512 512" height="512" viewBox="0 0 512 512" width="512" xmlns="http://www.w3.org/2000/svg"><path d="m362.517 300.83 133.815 40.447c-8.992 37.531-23.146 68.881-42.471 94.047-19.323 25.158-43.314 44.154-71.964 56.963-28.653 12.811-65.11 19.215-109.385 19.215-53.705 0-97.578-7.809-131.62-23.418-34.047-15.605-63.431-43.049-88.148-82.354-24.716-39.295-37.077-89.604-37.077-150.915 0-81.738 21.744-144.556 65.226-188.466 43.477-43.895 104.995-65.85 184.547-65.85 62.247 0 111.174 12.59 146.791 37.753 35.622 25.165 62.075 63.822 79.386 115.949l-134.832 30c-4.72-15.049-9.664-26.064-14.828-33.03-8.543-11.683-18.995-20.677-31.351-26.967-12.36-6.288-26.182-9.438-41.458-9.438-34.61 0-61.126 13.92-79.553 41.75-13.931 20.654-20.894 53.084-20.894 97.291 0 54.769 8.309 92.31 24.941 112.619 16.627 20.309 39.998 30.469 70.113 30.469 29.212 0 51.284-8.209 66.231-24.605 14.944-16.399 25.787-40.224 32.531-71.46z"/></svg>